<svg width="13" height="11" viewBox="0 0 13 11" fill="none" xmlns="http://www.w3.org/2000/svg">
<path d="M12.3967 9.146L9.95621 7.25702C9.84606 7.17176 9.69674 7.12439 9.54008 7.12439H9.14109C9.81669 6.45557 10.2181 5.61434 10.2181 4.69921C10.2181 2.52224 7.9392 0.758301 5.12664 0.758301C2.31409 0.758301 0.0351562 2.52224 0.0351562 4.69921C0.0351562 6.87619 2.31409 8.64013 5.12664 8.64013C6.30895 8.64013 7.39578 8.3294 8.25987 7.80647V8.1153C8.25987 8.23656 8.32106 8.35214 8.43122 8.4374L10.8717 10.3264C11.1018 10.5045 11.4739 10.5045 11.7015 10.3264L12.3943 9.79019C12.6243 9.61209 12.6243 9.3241 12.3967 9.146ZM5.12664 7.12439C3.39603 7.12439 1.99342 6.04064 1.99342 4.69921C1.99342 3.35968 3.39358 2.27404 5.12664 2.27404C6.85726 2.27404 8.25987 3.35779 8.25987 4.69921C8.25987 6.03875 6.85971 7.12439 5.12664 7.12439Z" fill="#F8F9FA" fill-opacity="0.5"/>
</svg>
